<svg width="518" height="455" viewBox="0 0 518 455" fill="none" xmlns="http://www.w3.org/2000/svg">
<rect y="183.655" width="436.945" height="271.345" rx="8.4434" fill="#202020"/>
<path d="M147.051 227.918C147.051 225.709 148.795 223.918 150.947 223.918L279.191 223.918C281.342 223.918 283.087 225.709 283.087 227.918V231.89C283.087 234.099 281.342 235.89 279.191 235.89L150.947 235.89C148.795 235.89 147.051 234.099 147.051 231.89L147.051 227.918Z" fill="#E5E9ED"/>
<path d="M234.503 349.286C234.503 347.264 236.099 345.625 238.068 345.625L331.02 345.625C332.989 345.625 334.586 347.264 334.586 349.286V351.094C334.586 353.116 332.989 354.755 331.02 354.755H238.068C236.099 354.755 234.503 353.116 234.503 351.094V349.286Z" fill="#E5E9ED"/>
<path d="M234.503 373.228C234.503 371.206 236.099 369.567 238.068 369.567H307.7C309.669 369.567 311.266 371.206 311.266 373.228V375.036C311.266 377.058 309.669 378.697 307.7 378.697H238.068C236.099 378.697 234.503 377.058 234.503 375.036V373.228Z" fill="#E5E9ED"/>
<path d="M207.941 4.88964C212.988 5.93832 219.271 9.38399 223.526 13.5288C229.512 19.3215 234.509 29.1092 236.835 39.596C237.132 40.9443 237.478 42.5423 237.676 43.0916C237.824 43.6409 238.022 62.2176 238.121 84.3897L238.319 124.739L191.268 124.739L191.219 91.1312C191.169 72.7044 191.219 55.6758 191.268 53.3287C191.565 37.998 185.034 21.8683 174.496 11.8309C169.994 7.53632 169.598 7.18675 167.273 5.83845C166.333 5.2392 165.541 4.6899 165.541 4.59002C165.541 4.19053 205.913 4.49014 207.941 4.88964Z" fill="#4BB75B"/>
<path d="M151.688 4.88968C156.091 5.68868 164.551 9.23423 164.551 10.3328C164.551 10.5326 163.265 11.0819 161.682 11.5813C147.334 16.1256 136.845 24.565 131.353 36.1005C128.385 42.3426 127.346 46.9868 127.395 54.3276C127.395 64.6147 129.077 68.9592 135.608 75.5509C140.16 80.1951 145.404 83.5908 153.172 86.9366C159.851 89.7831 169.004 92.6794 175.436 93.9778C182.708 95.426 185.182 96.0252 185.677 96.4247C186.172 96.7743 186.32 99.1713 186.32 105.413L186.32 113.903L181.224 113.553C170.29 112.804 163.265 111.855 153.469 109.708C138.775 106.462 127.89 101.319 118.836 93.2787C113.988 88.9341 108.743 79.9454 106.863 72.4548C104.538 63.4661 104.686 49.234 107.16 39.7459C111.514 22.917 124.278 10.4826 141.793 5.93837C146.74 4.68993 149.016 4.44025 151.688 4.88968Z" fill="#4BB75B"/>
<path d="M173.11 18.8221C174.644 21.0193 175.93 22.9169 175.93 23.0168C175.93 23.1167 174.199 23.8657 172.071 24.6148C164.551 27.3114 159.9 30.4575 156.882 35.0017C152.281 41.8432 151.886 52.3799 155.942 60.4198C160.148 68.8093 170.34 75.2512 182.807 77.3985L186.32 77.9977L186.32 88.3847L184.193 88.085C171.28 86.1375 159.653 81.8928 151.193 76.15C146.889 73.2037 141.545 67.2113 139.665 63.2662C137.34 58.3724 136.845 56.0253 137.043 50.3325C137.34 41.8931 140.506 34.6023 146.938 27.5611C151.143 22.9169 155.25 19.721 159.257 17.8733C162.473 16.4251 167.668 14.877 169.35 14.877C169.993 14.877 171.28 16.2253 173.11 18.8221Z" fill="#4BB75B"/>
<path d="M454.08 51.0816C454.179 51.1315 455.713 51.3313 457.494 51.5311C466.004 52.33 477.729 55.0267 483.666 57.5235C495.639 62.667 506.376 74.8517 511.026 88.7842C513.648 96.6743 513.648 96.6743 507.81 90.9315C502.121 85.3885 495.738 80.8442 488.861 77.5483C484.211 75.3012 475.8 72.0053 473.722 71.6058C473.079 71.5059 471.941 71.1564 471.199 70.8567C468.725 69.9079 457.791 67.7606 451.31 67.0116C440.87 65.8131 423.653 65.9629 415.539 67.3611C413.956 67.6108 411.68 67.9604 410.443 68.1601C408.662 68.4098 401.191 70.0578 397.53 71.0066C389.416 73.1539 377.641 78.1476 371.111 82.2424C363.442 87.0364 347.313 95.6755 339.644 99.0713C327.572 104.464 313.126 109.258 303.33 111.206C291.851 113.453 287.349 113.803 264.591 114.102L243.217 114.352L243.217 99.271L249.995 99.271C265.729 99.1711 279.483 98.7217 285.519 97.9727C303.824 95.7255 326.731 89.0838 341.178 81.8429C343.998 80.3948 346.917 78.7968 347.61 78.2974C352.557 74.7519 366.658 67.461 375.217 64.0154C387.635 59.0716 403.517 54.6272 414.649 53.0791C415.737 52.9293 417.073 52.7295 417.617 52.5797C419.151 52.2801 423.554 51.8307 429.491 51.3812C434.389 50.9817 453.734 50.782 454.08 51.0816Z" fill="#4BB75B"/>
<path d="M295.414 78.647C301.796 79.1463 308.03 80.4946 319.409 83.9403L321.141 84.4397L319.409 85.1887C317.331 86.0876 310.85 87.9353 304.863 89.2836C301.252 90.1325 300.015 90.2324 297.739 89.7829C296.057 89.4833 284.727 89.2836 269.093 89.2836L243.217 89.2836L243.217 78.2975L268.301 78.3973C282.154 78.4472 294.325 78.5471 295.414 78.647Z" fill="#4BB75B"/>
<path d="M353.052 99.421C353.744 99.7206 361.512 103.915 370.368 108.809C387.387 118.147 401.686 125.488 408.216 128.235C410.393 129.134 412.917 130.182 413.807 130.582C419.695 133.178 431.965 136.674 438.891 137.773C441.068 138.122 446.164 138.422 450.27 138.372C461.402 138.322 469.566 136.374 479.213 131.481C483.369 129.333 489.158 125.488 491.632 123.191C492.324 122.542 493.759 121.243 494.798 120.295C498.063 117.448 504.742 109.758 507.414 105.813C508.107 104.814 509.096 103.416 509.69 102.667L510.729 101.368L512.065 102.417L513.401 103.516L512.263 106.262C506.771 119.845 496.134 133.977 485.398 141.967C470.357 153.203 451.21 156.998 430.233 152.904C416.677 150.257 400.696 143.615 385.21 134.227C377.789 129.683 375.019 127.835 362.205 118.896C355.773 114.402 347.906 109.608 342.513 106.961C340.98 106.162 339.743 105.314 339.842 105.064C339.941 104.764 342.019 103.566 344.443 102.317C351.172 98.9715 351.617 98.8217 353.052 99.421Z" fill="#4BB75B"/>
<path d="M238.27 172.679L184.837 172.679L184.837 129.733L238.27 129.733L238.27 172.679Z" fill="#4BB75B"/>
<path d="M233.816 206.137L189.288 206.137L189.288 177.672L233.816 177.672L233.816 206.137Z" fill="#4BB75B"/>
<mask id="path-4-inside-1" fill="white">
<path d="M211.874 1.86864C216.92 2.91732 223.204 6.36299 227.459 10.5078C233.445 16.3005 238.442 26.0882 240.767 36.575C241.064 37.9233 241.411 39.5213 241.608 40.0706C241.757 40.6199 241.955 59.1966 242.054 81.3687L242.252 121.718L195.201 121.718L195.151 88.1102C195.102 69.6834 195.151 52.6548 195.201 50.3077C195.498 34.977 188.967 18.8473 178.429 8.80992C173.926 4.51532 173.531 4.16576 171.205 2.81746C170.265 2.21821 169.474 1.6689 169.474 1.56902C169.474 1.16953 209.845 1.46914 211.874 1.86864Z"/>
<path d="M155.62 1.86866C160.024 2.66765 168.484 6.2132 168.484 7.31182C168.484 7.51156 167.197 8.06087 165.614 8.56024C151.266 13.1045 140.778 21.5439 135.286 33.0794C132.317 39.3216 131.278 43.9657 131.328 51.3065C131.328 61.5935 133.01 65.9381 139.541 72.5298C144.093 77.1739 149.337 80.5697 157.104 83.9155C163.784 86.7619 172.937 89.6582 179.368 90.9566C186.641 92.4048 189.115 93.004 189.61 93.4035C190.104 93.7531 190.253 96.1501 190.253 102.392L190.253 110.882L185.157 110.532C174.223 109.783 167.197 108.834 157.401 106.687C142.707 103.441 131.823 98.2974 122.769 90.2575C117.92 85.913 112.676 76.9243 110.796 69.4337C108.47 60.445 108.619 46.2129 111.093 36.7248C115.446 19.896 128.211 7.46163 145.725 2.91734C150.673 1.66892 152.949 1.41923 155.62 1.86866Z"/>
<path d="M177.043 15.8009C178.577 17.9981 179.863 19.8957 179.863 19.9956C179.863 20.0955 178.131 20.8445 176.004 21.5936C168.484 24.2902 163.833 27.4362 160.815 31.9805C156.214 38.8219 155.818 49.3587 159.875 57.3986C164.08 65.788 174.272 72.2299 186.74 74.3772L190.253 74.9765L190.253 85.3634L188.125 85.0638C175.212 83.1163 163.586 78.8716 155.125 73.1288C150.821 70.1825 145.478 64.19 143.598 60.245C141.272 55.3512 140.778 53.0041 140.976 47.3113C141.272 38.8719 144.439 31.581 150.871 24.5399C155.076 19.8957 159.182 16.6997 163.19 14.8521C166.406 13.4039 171.601 11.8558 173.283 11.8558C173.926 11.8558 175.212 13.2041 177.043 15.8009Z"/>
<path d="M458.013 48.0605C458.112 48.1104 459.646 48.3101 461.427 48.5099C469.936 49.3089 481.662 52.0055 487.599 54.5024C499.572 59.6459 510.308 71.8306 514.959 85.7631C517.581 93.6532 517.581 93.6532 511.743 87.9104C506.053 82.3674 499.671 77.8231 492.794 74.5272C488.143 72.2801 479.733 68.9842 477.655 68.5847C477.011 68.4848 475.873 68.1352 475.131 67.8356C472.658 66.8868 461.724 64.7395 455.242 63.9905C444.803 62.792 427.586 62.9418 419.472 64.34C417.889 64.5897 415.613 64.9392 414.376 65.139C412.595 65.3887 405.124 67.0366 401.463 67.9854C393.349 70.1327 381.574 75.1265 375.043 79.2213C367.374 84.0153 351.246 92.6544 343.577 96.0502C331.505 101.443 317.058 106.237 307.262 108.185C295.784 110.432 291.282 110.782 268.523 111.081L247.15 111.331L247.15 96.2499L253.928 96.2499C269.661 96.15 283.415 95.7006 289.451 94.9515C307.757 92.7044 330.664 86.0627 345.111 78.8218C347.931 77.3736 350.85 75.7756 351.542 75.2763C356.49 71.7307 370.59 64.4399 379.15 60.9942C391.568 56.0504 407.449 51.606 418.581 50.0579C419.67 49.9081 421.006 49.7084 421.55 49.5586C423.084 49.2589 427.487 48.8095 433.424 48.3601C438.322 47.9606 457.667 47.7608 458.013 48.0605Z"/>
<path d="M299.346 75.6258C305.728 76.1251 311.962 77.4734 323.341 80.9191L325.073 81.4184L323.341 82.1675C321.264 83.0664 314.782 84.914 308.796 86.2623C305.184 87.1113 303.947 87.2111 301.671 86.7617C299.989 86.4621 288.659 86.2624 273.025 86.2624L247.15 86.2624L247.15 75.2762L272.234 75.3761C286.087 75.426 298.258 75.5259 299.346 75.6258Z"/>
<path d="M356.984 96.3998C357.677 96.6994 365.444 100.894 374.301 105.788C391.32 115.126 405.618 122.467 412.149 125.214C414.326 126.112 416.849 127.161 417.74 127.561C423.627 130.157 435.897 133.653 442.824 134.752C445 135.101 450.096 135.401 454.203 135.351C465.335 135.301 473.498 133.353 483.146 128.459C487.302 126.312 493.09 122.467 495.564 120.17C496.257 119.521 497.692 118.222 498.73 117.274C501.996 114.427 508.675 106.737 511.347 102.792C512.039 101.793 513.029 100.395 513.623 99.6457L514.661 98.3473L515.997 99.396L517.333 100.495L516.195 103.241C510.703 116.824 500.066 130.956 489.33 138.946C474.29 150.182 455.143 153.977 434.165 149.883C420.609 147.236 404.629 140.594 389.143 131.206C381.722 126.662 378.951 124.814 366.137 115.875C359.705 111.381 351.839 106.587 346.446 103.94C344.912 103.141 343.675 102.292 343.774 102.043C343.873 101.743 345.951 100.545 348.376 99.2961C355.104 95.9503 355.549 95.8005 356.984 96.3998Z"/>
<path d="M242.202 169.658L188.769 169.658L188.769 126.712L242.202 126.712L242.202 169.658Z"/>
<path d="M237.748 203.115L193.221 203.115L193.221 174.651L237.748 174.651L237.748 203.115Z"/>
</mask>
<path d="M211.874 1.86864C216.92 2.91732 223.204 6.36299 227.459 10.5078C233.445 16.3005 238.442 26.0882 240.767 36.575C241.064 37.9233 241.411 39.5213 241.608 40.0706C241.757 40.6199 241.955 59.1966 242.054 81.3687L242.252 121.718L195.201 121.718L195.151 88.1102C195.102 69.6834 195.151 52.6548 195.201 50.3077C195.498 34.977 188.967 18.8473 178.429 8.80992C173.926 4.51532 173.531 4.16576 171.205 2.81746C170.265 2.21821 169.474 1.6689 169.474 1.56902C169.474 1.16953 209.845 1.46914 211.874 1.86864Z" stroke="black" stroke-width="2" mask="url(#path-4-inside-1)"/>
<path d="M155.62 1.86866C160.024 2.66765 168.484 6.2132 168.484 7.31182C168.484 7.51156 167.197 8.06087 165.614 8.56024C151.266 13.1045 140.778 21.5439 135.286 33.0794C132.317 39.3216 131.278 43.9657 131.328 51.3065C131.328 61.5935 133.01 65.9381 139.541 72.5298C144.093 77.1739 149.337 80.5697 157.104 83.9155C163.784 86.7619 172.937 89.6582 179.368 90.9566C186.641 92.4048 189.115 93.004 189.61 93.4035C190.104 93.7531 190.253 96.1501 190.253 102.392L190.253 110.882L185.157 110.532C174.223 109.783 167.197 108.834 157.401 106.687C142.707 103.441 131.823 98.2974 122.769 90.2575C117.92 85.913 112.676 76.9243 110.796 69.4337C108.47 60.445 108.619 46.2129 111.093 36.7248C115.446 19.896 128.211 7.46163 145.725 2.91734C150.673 1.66892 152.949 1.41923 155.62 1.86866Z" stroke="black" stroke-width="2" mask="url(#path-4-inside-1)"/>
<path d="M177.043 15.8009C178.577 17.9981 179.863 19.8957 179.863 19.9956C179.863 20.0955 178.131 20.8445 176.004 21.5936C168.484 24.2902 163.833 27.4362 160.815 31.9805C156.214 38.8219 155.818 49.3587 159.875 57.3986C164.08 65.788 174.272 72.2299 186.74 74.3772L190.253 74.9765L190.253 85.3634L188.125 85.0638C175.212 83.1163 163.586 78.8716 155.125 73.1288C150.821 70.1825 145.478 64.19 143.598 60.245C141.272 55.3512 140.778 53.0041 140.976 47.3113C141.272 38.8719 144.439 31.581 150.871 24.5399C155.076 19.8957 159.182 16.6997 163.19 14.8521C166.406 13.4039 171.601 11.8558 173.283 11.8558C173.926 11.8558 175.212 13.2041 177.043 15.8009Z" stroke="black" stroke-width="2" mask="url(#path-4-inside-1)"/>
<path d="M458.013 48.0605C458.112 48.1104 459.646 48.3101 461.427 48.5099C469.936 49.3089 481.662 52.0055 487.599 54.5024C499.572 59.6459 510.308 71.8306 514.959 85.7631C517.581 93.6532 517.581 93.6532 511.743 87.9104C506.053 82.3674 499.671 77.8231 492.794 74.5272C488.143 72.2801 479.733 68.9842 477.655 68.5847C477.011 68.4848 475.873 68.1352 475.131 67.8356C472.658 66.8868 461.724 64.7395 455.242 63.9905C444.803 62.792 427.586 62.9418 419.472 64.34C417.889 64.5897 415.613 64.9392 414.376 65.139C412.595 65.3887 405.124 67.0366 401.463 67.9854C393.349 70.1327 381.574 75.1265 375.043 79.2213C367.374 84.0153 351.246 92.6544 343.577 96.0502C331.505 101.443 317.058 106.237 307.262 108.185C295.784 110.432 291.282 110.782 268.523 111.081L247.15 111.331L247.15 96.2499L253.928 96.2499C269.661 96.15 283.415 95.7006 289.451 94.9515C307.757 92.7044 330.664 86.0627 345.111 78.8218C347.931 77.3736 350.85 75.7756 351.542 75.2763C356.49 71.7307 370.59 64.4399 379.15 60.9942C391.568 56.0504 407.449 51.606 418.581 50.0579C419.67 49.9081 421.006 49.7084 421.55 49.5586C423.084 49.2589 427.487 48.8095 433.424 48.3601C438.322 47.9606 457.667 47.7608 458.013 48.0605Z" stroke="black" stroke-width="2" mask="url(#path-4-inside-1)"/>
<path d="M299.346 75.6258C305.728 76.1251 311.962 77.4734 323.341 80.9191L325.073 81.4184L323.341 82.1675C321.264 83.0664 314.782 84.914 308.796 86.2623C305.184 87.1113 303.947 87.2111 301.671 86.7617C299.989 86.4621 288.659 86.2624 273.025 86.2624L247.15 86.2624L247.15 75.2762L272.234 75.3761C286.087 75.426 298.258 75.5259 299.346 75.6258Z" stroke="black" stroke-width="2" mask="url(#path-4-inside-1)"/>
<path d="M356.984 96.3998C357.677 96.6994 365.444 100.894 374.301 105.788C391.32 115.126 405.618 122.467 412.149 125.214C414.326 126.112 416.849 127.161 417.74 127.561C423.627 130.157 435.897 133.653 442.824 134.752C445 135.101 450.096 135.401 454.203 135.351C465.335 135.301 473.498 133.353 483.146 128.459C487.302 126.312 493.09 122.467 495.564 120.17C496.257 119.521 497.692 118.222 498.73 117.274C501.996 114.427 508.675 106.737 511.347 102.792C512.039 101.793 513.029 100.395 513.623 99.6457L514.661 98.3473L515.997 99.396L517.333 100.495L516.195 103.241C510.703 116.824 500.066 130.956 489.33 138.946C474.29 150.182 455.143 153.977 434.165 149.883C420.609 147.236 404.629 140.594 389.143 131.206C381.722 126.662 378.951 124.814 366.137 115.875C359.705 111.381 351.839 106.587 346.446 103.94C344.912 103.141 343.675 102.292 343.774 102.043C343.873 101.743 345.951 100.545 348.376 99.2961C355.104 95.9503 355.549 95.8005 356.984 96.3998Z" stroke="black" stroke-width="2" mask="url(#path-4-inside-1)"/>
<path d="M242.202 169.658L188.769 169.658L188.769 126.712L242.202 126.712L242.202 169.658Z" stroke="black" stroke-width="2" mask="url(#path-4-inside-1)"/>
<path d="M237.748 203.115L193.221 203.115L193.221 174.651L237.748 174.651L237.748 203.115Z" stroke="black" stroke-width="2" mask="url(#path-4-inside-1)"/>
<path d="M248.499 288.998L241.441 288.998L239.965 293.24L236.674 293.24L243.556 275.02L246.397 275.02L253.291 293.24L249.988 293.24L248.499 288.998ZM242.33 286.445L247.61 286.445L244.97 278.887L242.33 286.445ZM258.309 293.24L255.269 293.24L255.269 274.019L258.309 274.019L258.309 293.24ZM264.866 293.24L261.825 293.24L261.825 279.7L264.866 279.7L264.866 293.24ZM261.638 276.184C261.638 275.717 261.784 275.329 262.076 275.02C262.376 274.712 262.801 274.557 263.352 274.557C263.903 274.557 264.328 274.712 264.628 275.02C264.929 275.329 265.079 275.717 265.079 276.184C265.079 276.643 264.929 277.027 264.628 277.335C264.328 277.636 263.903 277.786 263.352 277.786C262.801 277.786 262.376 277.636 262.076 277.335C261.784 277.027 261.638 276.643 261.638 276.184ZM273.751 291.062C274.51 291.062 275.14 290.841 275.64 290.399C276.141 289.957 276.408 289.411 276.441 288.76L279.306 288.76C279.273 289.603 279.01 290.391 278.518 291.125C278.026 291.851 277.359 292.426 276.516 292.852C275.673 293.277 274.764 293.49 273.788 293.49C271.894 293.49 270.393 292.877 269.283 291.651C268.174 290.424 267.619 288.731 267.619 286.57L267.619 286.257C267.619 284.197 268.17 282.549 269.271 281.315C270.372 280.072 271.874 279.45 273.776 279.45C275.386 279.45 276.695 279.921 277.705 280.864C278.723 281.798 279.256 283.029 279.306 284.556L276.441 284.556C276.408 283.78 276.141 283.142 275.64 282.641C275.148 282.14 274.518 281.89 273.751 281.89C272.766 281.89 272.007 282.249 271.473 282.966C270.939 283.675 270.668 284.756 270.66 286.207L270.66 286.695C270.66 288.164 270.923 289.261 271.448 289.986C271.982 290.704 272.75 291.062 273.751 291.062ZM287.565 293.49C285.638 293.49 284.074 292.885 282.873 291.676C281.68 290.458 281.083 288.839 281.083 286.82L281.083 286.445C281.083 285.094 281.342 283.888 281.859 282.829C282.385 281.761 283.119 280.931 284.061 280.339C285.004 279.746 286.055 279.45 287.215 279.45C289.058 279.45 290.481 280.038 291.482 281.215C292.491 282.391 292.996 284.055 292.996 286.207L292.996 287.434L284.149 287.434C284.241 288.551 284.612 289.436 285.263 290.086C285.922 290.737 286.748 291.062 287.74 291.062C289.134 291.062 290.268 290.499 291.144 289.373L292.783 290.937C292.241 291.746 291.515 292.376 290.606 292.827C289.705 293.269 288.691 293.49 287.565 293.49ZM287.202 281.89C286.368 281.89 285.692 282.182 285.175 282.766C284.666 283.35 284.341 284.163 284.199 285.206L289.993 285.206L289.993 284.981C289.926 283.963 289.655 283.196 289.179 282.679C288.704 282.153 288.045 281.89 287.202 281.89ZM316.333 288.735L319.136 275.02L322.277 275.02L318.072 293.24L315.044 293.24L311.578 279.938L308.037 293.24L304.996 293.24L300.792 275.02L303.933 275.02L306.761 288.71L310.239 275.02L312.892 275.02L316.333 288.735ZM327.532 293.24L324.492 293.24L324.492 279.7L327.532 279.7L327.532 293.24ZM324.304 276.184C324.304 275.717 324.45 275.329 324.742 275.02C325.042 274.712 325.468 274.557 326.018 274.557C326.569 274.557 326.994 274.712 327.295 275.02C327.595 275.329 327.745 275.717 327.745 276.184C327.745 276.643 327.595 277.027 327.295 277.335C326.994 277.636 326.569 277.786 326.018 277.786C325.468 277.786 325.042 277.636 324.742 277.335C324.45 277.027 324.304 276.643 324.304 276.184ZM334.089 293.24L331.049 293.24L331.049 274.019L334.089 274.019L334.089 293.24ZM340.646 293.24L337.606 293.24L337.606 274.019L340.646 274.019L340.646 293.24ZM347.203 293.24L344.163 293.24L344.163 279.7L347.203 279.7L347.203 293.24ZM343.975 276.184C343.975 275.717 344.121 275.329 344.413 275.02C344.713 274.712 345.139 274.557 345.689 274.557C346.24 274.557 346.665 274.712 346.966 275.02C347.266 275.329 347.416 275.717 347.416 276.184C347.416 276.643 347.266 277.027 346.966 277.335C346.665 277.636 346.24 277.786 345.689 277.786C345.139 277.786 344.713 277.636 344.413 277.335C344.121 277.027 343.975 276.643 343.975 276.184ZM358.615 293.24C358.482 292.981 358.365 292.56 358.265 291.976C357.297 292.985 356.113 293.49 354.711 293.49C353.351 293.49 352.242 293.102 351.383 292.326C350.523 291.55 350.094 290.591 350.094 289.448C350.094 288.005 350.628 286.9 351.696 286.132C352.772 285.356 354.307 284.968 356.3 284.968L358.165 284.968L358.165 284.08C358.165 283.379 357.969 282.82 357.577 282.403C357.185 281.978 356.588 281.765 355.787 281.765C355.095 281.765 354.528 281.94 354.086 282.291C353.643 282.633 353.422 283.071 353.422 283.605L350.382 283.605C350.382 282.862 350.628 282.17 351.12 281.527C351.612 280.877 352.28 280.368 353.122 280.001C353.973 279.634 354.92 279.45 355.963 279.45C357.548 279.45 358.811 279.851 359.754 280.651C360.697 281.444 361.181 282.562 361.206 284.005L361.206 290.111C361.206 291.329 361.377 292.301 361.719 293.027L361.719 293.24L358.615 293.24ZM355.274 291.05C355.875 291.05 356.438 290.904 356.964 290.612C357.498 290.32 357.898 289.928 358.165 289.436L358.165 286.883L356.526 286.883C355.399 286.883 354.553 287.079 353.985 287.471C353.418 287.863 353.135 288.418 353.135 289.135C353.135 289.719 353.326 290.186 353.71 290.537C354.102 290.879 354.624 291.05 355.274 291.05ZM367.25 279.7L367.337 281.114C368.288 280.005 369.589 279.45 371.241 279.45C373.051 279.45 374.29 280.143 374.958 281.527C375.942 280.143 377.327 279.45 379.112 279.45C380.605 279.45 381.715 279.863 382.441 280.689C383.175 281.515 383.55 282.733 383.567 284.343L383.567 293.24L380.526 293.24L380.526 284.43C380.526 283.571 380.338 282.941 379.963 282.541C379.588 282.14 378.966 281.94 378.098 281.94C377.406 281.94 376.839 282.128 376.397 282.503C375.963 282.87 375.658 283.354 375.483 283.955L375.496 293.24L372.455 293.24L372.455 284.33C372.413 282.737 371.6 281.94 370.015 281.94C368.797 281.94 367.934 282.437 367.425 283.429L367.425 293.24L364.384 293.24L364.384 279.7L367.25 279.7ZM394.278 289.561C394.278 289.019 394.053 288.606 393.602 288.322C393.16 288.038 392.422 287.788 391.388 287.571C390.353 287.354 389.49 287.079 388.797 286.745C387.279 286.011 386.52 284.948 386.52 283.554C386.52 282.387 387.012 281.411 387.996 280.626C388.981 279.842 390.232 279.45 391.75 279.45C393.369 279.45 394.674 279.851 395.667 280.651C396.668 281.452 397.169 282.491 397.169 283.767L394.128 283.767C394.128 283.183 393.911 282.699 393.477 282.316C393.043 281.924 392.468 281.728 391.75 281.728C391.083 281.728 390.537 281.882 390.111 282.191C389.694 282.499 389.486 282.912 389.486 283.429C389.486 283.897 389.682 284.259 390.074 284.518C390.466 284.777 391.258 285.039 392.451 285.306C393.644 285.565 394.578 285.878 395.254 286.245C395.938 286.604 396.443 287.037 396.768 287.546C397.102 288.055 397.269 288.672 397.269 289.398C397.269 290.616 396.764 291.605 395.755 292.364C394.745 293.115 393.423 293.49 391.788 293.49C390.678 293.49 389.69 293.29 388.822 292.889C387.955 292.489 387.279 291.938 386.795 291.238C386.311 290.537 386.069 289.782 386.069 288.973L389.023 288.973C389.064 289.69 389.335 290.245 389.836 290.637C390.336 291.021 391 291.213 391.826 291.213C392.626 291.213 393.235 291.062 393.652 290.762C394.07 290.453 394.278 290.053 394.278 289.561ZM246.053 310.527L246.053 318.491C246.048 319.596 245.699 320.5 245.008 321.202C244.321 321.905 243.388 322.299 242.208 322.385L241.798 322.401C240.516 322.401 239.495 322.055 238.733 321.363C237.972 320.671 237.586 319.719 237.575 318.507L237.575 310.527L239.103 310.527L239.103 318.459C239.103 319.306 239.336 319.966 239.803 320.438C240.27 320.904 240.935 321.138 241.798 321.138C242.672 321.138 243.34 320.904 243.801 320.438C244.268 319.971 244.501 319.314 244.501 318.467L244.501 310.527L246.053 310.527ZM249.665 313.536L249.714 314.63C250.379 313.793 251.247 313.375 252.32 313.375C254.159 313.375 255.087 314.413 255.103 316.488L255.103 322.24L253.615 322.24L253.615 316.48C253.61 315.853 253.465 315.389 253.181 315.088C252.902 314.788 252.465 314.638 251.869 314.638C251.387 314.638 250.963 314.767 250.598 315.024C250.234 315.281 249.949 315.619 249.746 316.038L249.746 322.24L248.258 322.24L248.258 313.536L249.665 313.536ZM260.445 317.872L256.519 317.872L256.519 316.657L260.445 316.657L260.445 317.872ZM264.772 320.221L266.928 313.536L268.449 313.536L265.327 322.24L264.193 322.24L261.04 313.536L262.56 313.536L264.772 320.221ZM273.38 322.401C272.2 322.401 271.24 322.015 270.5 321.242C269.76 320.465 269.39 319.427 269.39 318.129L269.39 317.856C269.39 316.992 269.553 316.223 269.88 315.547C270.213 314.866 270.674 314.335 271.264 313.954C271.859 313.568 272.503 313.375 273.195 313.375C274.326 313.375 275.206 313.748 275.833 314.493C276.461 315.239 276.774 316.306 276.774 317.695L276.774 318.314L270.878 318.314C270.899 319.172 271.149 319.867 271.626 320.398C272.109 320.923 272.72 321.186 273.46 321.186C273.986 321.186 274.431 321.079 274.795 320.864C275.16 320.65 275.479 320.365 275.753 320.011L276.662 320.719C275.932 321.84 274.838 322.401 273.38 322.401ZM273.195 314.598C272.594 314.598 272.09 314.818 271.682 315.257C271.275 315.692 271.023 316.303 270.926 317.091L275.286 317.091L275.286 316.979C275.243 316.223 275.039 315.638 274.675 315.225C274.31 314.807 273.817 314.598 273.195 314.598ZM282.711 314.871C282.486 314.834 282.242 314.815 281.979 314.815C281.003 314.815 280.341 315.231 279.992 316.062L279.992 322.24L278.504 322.24L278.504 313.536L279.952 313.536L279.976 314.541C280.464 313.764 281.156 313.375 282.051 313.375C282.341 313.375 282.561 313.413 282.711 313.488L282.711 314.871ZM285.703 322.24L284.215 322.24L284.215 313.536L285.703 313.536L285.703 322.24ZM284.095 311.227C284.095 310.986 284.167 310.782 284.312 310.616C284.462 310.45 284.682 310.366 284.971 310.366C285.261 310.366 285.481 310.45 285.631 310.616C285.781 310.782 285.856 310.986 285.856 311.227C285.856 311.469 285.781 311.67 285.631 311.831C285.481 311.991 285.261 312.072 284.971 312.072C284.682 312.072 284.462 311.991 284.312 311.831C284.167 311.67 284.095 311.469 284.095 311.227ZM288.591 322.24L288.591 314.686L287.216 314.686L287.216 313.536L288.591 313.536L288.591 312.796C288.591 311.825 288.867 311.069 289.42 310.527C289.978 309.986 290.763 309.715 291.777 309.715C292.377 309.715 293.136 309.878 294.053 310.206L293.804 311.46C293.134 311.192 292.495 311.058 291.889 311.058C291.251 311.058 290.79 311.203 290.506 311.493C290.227 311.777 290.088 312.206 290.088 312.78L290.088 313.536L291.865 313.536L291.865 314.686L290.088 314.686L290.088 322.24L288.591 322.24ZM294.793 322.24L293.297 322.24L293.297 313.536L294.793 313.536L294.793 322.24ZM300.827 322.401C299.647 322.401 298.687 322.014 297.947 321.242C297.207 320.465 296.837 319.427 296.837 318.129L296.837 317.856C296.837 316.992 297 316.223 297.327 315.547C297.66 314.866 298.121 314.335 298.711 313.954C299.306 313.568 299.95 313.375 300.642 313.375C301.773 313.375 302.653 313.748 303.28 314.493C303.907 315.239 304.221 316.306 304.221 317.695L304.221 318.314L298.325 318.314C298.346 319.172 298.596 319.867 299.073 320.398C299.556 320.923 300.167 321.186 300.907 321.186C301.433 321.186 301.878 321.079 302.242 320.864C302.607 320.65 302.926 320.365 303.2 320.011L304.109 320.719C303.379 321.84 302.285 322.401 300.827 322.401ZM300.642 314.598C300.041 314.598 299.537 314.818 299.129 315.257C298.722 315.692 298.47 316.303 298.373 317.091L302.733 317.091L302.733 316.979C302.69 316.223 302.486 315.638 302.122 315.225C301.757 314.807 301.264 314.598 300.642 314.598ZM305.589 317.815C305.589 316.48 305.905 315.408 306.538 314.598C307.171 313.783 307.999 313.375 309.024 313.375C310.043 313.375 310.85 313.724 311.445 314.421L311.445 309.884L312.933 309.884L312.933 322.24L311.566 322.24L311.493 321.307C310.898 322.036 310.069 322.401 309.008 322.401C307.999 322.401 307.176 321.988 306.538 321.162C305.905 320.336 305.589 319.258 305.589 317.928L305.589 317.815ZM307.077 317.984C307.077 318.971 307.281 319.743 307.688 320.301C308.096 320.859 308.659 321.138 309.378 321.138C310.321 321.138 311.011 320.714 311.445 319.867L311.445 315.869C311 315.048 310.316 314.638 309.394 314.638C308.664 314.638 308.096 314.919 307.688 315.483C307.281 316.046 307.077 316.88 307.077 317.984ZM328.217 320.703C327.82 321.272 327.265 321.698 326.552 321.982C325.844 322.261 325.018 322.401 324.074 322.401C323.12 322.401 322.272 322.178 321.532 321.733C320.792 321.282 320.218 320.644 319.811 319.818C319.409 318.993 319.202 318.035 319.192 316.947L319.192 315.925C319.192 314.161 319.602 312.793 320.422 311.822C321.248 310.852 322.407 310.366 323.897 310.366C325.12 310.366 326.104 310.68 326.85 311.308C327.595 311.93 328.051 312.815 328.217 313.962L326.673 313.962C326.383 312.412 325.461 311.637 323.905 311.637C322.87 311.637 322.085 312.002 321.548 312.731C321.018 313.455 320.749 314.507 320.744 315.885L320.744 316.842C320.744 318.156 321.044 319.202 321.645 319.979C322.246 320.752 323.058 321.138 324.082 321.138C324.662 321.138 325.168 321.073 325.603 320.945C326.037 320.816 326.396 320.599 326.681 320.293L326.681 317.663L323.97 317.663L323.97 316.408L328.217 316.408L328.217 320.703ZM335.94 321.379C335.36 322.06 334.51 322.401 333.39 322.401C332.462 322.401 331.754 322.132 331.266 321.596C330.783 321.055 330.539 320.255 330.534 319.199L330.534 313.536L332.022 313.536L332.022 319.159C332.022 320.478 332.558 321.138 333.631 321.138C334.768 321.138 335.524 320.714 335.899 319.867L335.899 313.536L337.388 313.536L337.388 322.24L335.972 322.24L335.94 321.379ZM343.268 322.401C342.088 322.401 341.128 322.014 340.388 321.242C339.648 320.465 339.278 319.427 339.278 318.129L339.278 317.856C339.278 316.992 339.442 316.223 339.769 315.547C340.101 314.866 340.562 314.335 341.152 313.954C341.748 313.568 342.391 313.375 343.083 313.375C344.214 313.375 345.094 313.748 345.721 314.493C346.349 315.239 346.663 316.306 346.663 317.695L346.663 318.314L340.766 318.314C340.788 319.172 341.037 319.867 341.514 320.398C341.997 320.923 342.608 321.186 343.348 321.186C343.874 321.186 344.319 321.079 344.684 320.864C345.048 320.65 345.367 320.365 345.641 320.011L346.55 320.719C345.821 321.84 344.727 322.401 343.268 322.401ZM343.083 314.598C342.482 314.598 341.978 314.818 341.571 315.257C341.163 315.692 340.911 316.303 340.814 317.091L345.174 317.091L345.174 316.979C345.131 316.223 344.928 315.638 344.563 315.225C344.198 314.807 343.705 314.598 343.083 314.598ZM353.46 319.931C353.46 319.529 353.307 319.218 353.001 318.998C352.701 318.773 352.173 318.58 351.417 318.419C350.666 318.258 350.068 318.065 349.623 317.84C349.183 317.614 348.856 317.346 348.641 317.035C348.432 316.724 348.328 316.354 348.328 315.925C348.328 315.212 348.628 314.608 349.229 314.115C349.835 313.622 350.607 313.375 351.545 313.375C352.532 313.375 353.331 313.63 353.943 314.139C354.559 314.649 354.868 315.3 354.868 316.094L353.371 316.094C353.371 315.686 353.197 315.335 352.849 315.04C352.505 314.745 352.071 314.598 351.545 314.598C351.004 314.598 350.58 314.716 350.274 314.952C349.969 315.188 349.816 315.496 349.816 315.877C349.816 316.236 349.958 316.507 350.242 316.689C350.526 316.872 351.039 317.046 351.779 317.212C352.524 317.378 353.127 317.577 353.589 317.807C354.05 318.038 354.39 318.317 354.61 318.644C354.835 318.966 354.948 319.36 354.948 319.826C354.948 320.604 354.637 321.229 354.015 321.701C353.393 322.167 352.586 322.401 351.594 322.401C350.896 322.401 350.28 322.277 349.743 322.031C349.207 321.784 348.786 321.441 348.481 321.001C348.18 320.556 348.03 320.076 348.03 319.561L349.518 319.561C349.545 320.06 349.743 320.457 350.114 320.752C350.489 321.041 350.982 321.186 351.594 321.186C352.157 321.186 352.607 321.073 352.945 320.848C353.288 320.617 353.46 320.312 353.46 319.931ZM358.906 311.428L358.906 313.536L360.531 313.536L360.531 314.686L358.906 314.686L358.906 320.084C358.906 320.432 358.978 320.695 359.123 320.872C359.268 321.044 359.515 321.13 359.863 321.13C360.035 321.13 360.271 321.097 360.571 321.033L360.571 322.24C360.18 322.347 359.799 322.401 359.429 322.401C358.764 322.401 358.262 322.2 357.924 321.797C357.587 321.395 357.418 320.824 357.418 320.084L357.418 314.686L355.833 314.686L355.833 313.536L357.418 313.536L357.418 311.428L358.906 311.428Z" fill="white"/>
</svg>
